<svg xmlns="http://www.w3.org/2000/svg" viewBox="0 0 512 512" width="512" height="512">
  <defs>
    <linearGradient id="bgGrad" x1="0%" y1="0%" x2="100%" y2="100%">
      <stop offset="0%" stop-color="#7C5CFC" />
      <stop offset="50%" stop-color="#6366F1" />
      <stop offset="100%" stop-color="#4F46E5" />
    </linearGradient>
    <linearGradient id="glowGrad" x1="0%" y1="0%" x2="100%" y2="100%">
      <stop offset="0%" stop-color="#22D3EE" stop-opacity="0.8" />
      <stop offset="100%" stop-color="#A78BFA" stop-opacity="0" />
    </linearGradient>
    <filter id="shadow" x="-10%" y="-10%" width="120%" height="120%">
      <feDropShadow dx="0" dy="16" stdDeviation="24" flood-color="#000000" flood-opacity="0.4" />
    </filter>
  </defs>

  <!-- App Background -->
  <rect width="512" height="512" rx="128" fill="#0B0F19" />
  <rect x="24" y="24" width="464" height="464" rx="104" fill="url(#bgGrad)" filter="url(#shadow)" />
  <rect x="24" y="24" width="464" height="464" rx="104" fill="url(#glowGrad)" />

  <!-- Chef Hat Icon -->
  <g fill="#FFFFFF" transform="translate(106, 96) scale(12.5)">
    <path d="M6 13.87A4 4 0 0 1 7.41 6a5.11 5.11 0 0 1 1.05-1.54 5 5 0 0 1 7.08 0A5.11 5.11 0 0 1 16.59 6 4 4 0 0 1 18 13.87V21H6Z"/>
    <line x1="6" y1="17" x2="18" y2="17" stroke="#6366F1" stroke-width="1.5" stroke-linecap="round" />
  </g>
</svg>
